# xmcd
#
# Track frame offsets:
#	150
#	13195
#	25626
#	38535
#	50122
#	61592
#	74219
#	86823
#	100421
#	112558
#	124989
#	137832
#	149009
#	158061
#	168255
#	179271
#	189942
#	200845
#	210987
#	221899
#	232726
#	243060
#	255678
#	265894
#	276473
#	286920
#	298495
#	309072
#
# Disc length: 4278 seconds
#
# Revision: 0
# Processed by: cddbd v1.4PL0 Copyright (c) Steve Scherf et al.
# Submitted via: EasyCDDAExtractor 4.6.9.1
#
DISCID=a310b41c
DTITLE=Hank Penny - Red Hot Papa
DYEAR=1900
DGENRE=Country
TTITLE0=Steel Guitar Stomp 1946
TTITLE1=Won't You Ride In My Little Red Wagon 1946
TTITLE2=Locked Out 1947
TTITLE3=Hillbilly Jump 1947
TTITLE4=I Told Them All About You 1947
TTITLE5=Red Hot Papa 1947
TTITLE6=Now Ain't You Glad Dear 1950
TTITLE7=Got The Louisiana Blues 1950
TTITLE8=Jersey Bounce 1950
TTITLE9=What've You Got 1950
TTITLE10=Tin Pan Polka 1950
TTITLE11=Tuxedo Junction 1951
TTITLE12=White Shotguns 1951
TTITLE13=I Want My Rib 1951
TTITLE14=No Muss, No Fuss, No Bother 1951
TTITLE15=What She's Got Is Mine 1951
TTITLE16=Hold The Phone 1951
TTITLE17=Catch 'em Young, Treat 'em Rough, Tell 'em Nothing 1951
TTITLE18=I Like Molasses 1951
TTITLE19=Won't You Ride In My Little Red Wagon 1952
TTITLE20=The Mink On Her Back 1952
TTITLE21=Taxes, Taxes 1952
TTITLE22=You're Bound To Look Like A Monkey 1952
TTITLE23=Hadacillin Boogie 1952
TTITLE24=That's My Weakness Now (-w- Jay P Morgan) 1953
TTITLE25=Fan It (-w- Jay P Morgan) 1953
TTITLE26=You Can't Pull The Wool Over My Eyes 1953
TTITLE27=Bloodshot Eyes 1955
EXTD=
EXTT0=
EXTT1=
EXTT2=
EXTT3=
EXTT4=
EXTT5=
EXTT6=
EXTT7=
EXTT8=
EXTT9=
EXTT10=
EXTT11=
EXTT12=
EXTT13=
EXTT14=
EXTT15=
EXTT16=
EXTT17=
EXTT18=
EXTT19=
EXTT20=
EXTT21=
EXTT22=
EXTT23=
EXTT24=
EXTT25=
EXTT26=
EXTT27=
PLAYORDER=
